<?xml version="1.0" encoding="UTF-8" standalone="no"?>
<!DOCTYPE svg PUBLIC "-//W3C//DTD SVG 1.1//EN" "http://www.w3.org/Graphics/SVG/1.1/DTD/svg11.dtd">
<svg width="100%" height="100%" viewBox="0 0 2500 1070" version="1.1" xmlns="http://www.w3.org/2000/svg" xmlns:xlink="http://www.w3.org/1999/xlink" xml:space="preserve" xmlns:serif="http://www.serif.com/" style="fill-rule:evenodd;clip-rule:evenodd;stroke-linejoin:round;stroke-miterlimit:2;">
    <g>
        <g transform="matrix(0.990415,0,0,0.928228,23.9634,76.7963)">
            <path d="M1754.73,843.981C1754.84,844.567 1755.22,845.315 1755.72,846.235C1756.92,848.458 1758.94,851.296 1761.46,854.452C1771.46,866.949 1789.31,884.321 1797.56,887.998C1801.56,889.785 1808.63,890.952 1823.89,891.786C1847.36,893.069 1889.74,893.434 1968.79,893.434L2011.01,893.443C2063.93,893.443 2094.62,893.284 2113.05,891.596C2126.28,890.384 2132.94,888.496 2137,885.091C2141.01,881.721 2142.38,876.93 2145.28,870.3L2145.28,870.296C2148.6,862.778 2148.88,856.784 2142.62,845.651C2135.89,833.678 2121.99,816.209 2096.93,786.09C2064.69,751.855 2050.3,726.502 2043.87,706.712C2037.41,686.83 2038.95,672.508 2038.73,660.337C2037.82,631.073 2059.23,538.911 2171.37,538.911L2465.14,538.881C2465.68,538.881 2466.2,539.109 2466.57,539.514C2466.95,539.92 2467.16,540.469 2467.16,541.041L2466.87,669.759C2466.87,670.331 2466.65,670.879 2466.27,671.282C2465.89,671.685 2465.38,671.91 2464.84,671.908C2464.84,671.908 2334.91,671.45 2268.85,671.45C2247.11,671.45 2232.35,671.478 2231.6,671.608C2227.58,672.397 2224.29,676.693 2221.79,682.006C2217.79,690.502 2215.95,701.823 2217.78,708.237L2217.78,708.255C2219.34,713.899 2231.14,732.266 2243.82,749.19L2243.82,749.193C2256.68,766.402 2277.82,794.56 2290.71,811.749C2324.25,856.412 2328.75,865.287 2331.86,890.933C2336.92,932.748 2318.45,978.019 2284.05,1007.86C2266.78,1022.84 2258.54,1030.39 2222.57,1034.19C2187.21,1037.92 2124.59,1037.98 1998.62,1037.98L1987.56,1037.98C1834.18,1037.94 1753.07,1036.54 1741.27,1033.74L1741.26,1033.74C1732.7,1031.67 1722.08,1025.74 1706.69,1013.39C1684.05,995.237 1650.82,963.068 1597.83,908.824C1572.5,882.921 1548.76,859.594 1539.51,851.295C1539.24,851.059 1538.98,850.827 1538.72,850.604L1537.7,1035.86C1537.69,1037.05 1536.79,1038.01 1535.67,1038L1392.77,1037.33C1391.66,1037.33 1390.77,1036.36 1390.76,1035.18L1389.88,546.812C1389.88,546.24 1390.09,545.691 1390.47,545.286C1390.85,544.881 1391.36,544.654 1391.9,544.654L1710.6,544.654L1710.68,544.655C1769.04,546.903 1816.09,584.994 1841.56,629.373C1858.62,659.11 1865.96,691.662 1860.7,718.171C1857.73,733.147 1850.13,754.849 1843.83,766.381C1830.88,790.042 1797.96,820.437 1771.22,833.476L1771.21,833.48C1764.59,836.676 1758.8,840.223 1755.93,842.725C1755.45,843.143 1754.95,843.72 1754.73,843.981ZM1537.76,646.789C1537.77,647.161 1537.78,647.571 1537.79,648.016C1538.08,665.786 1537.5,746.923 1537.41,759.968C1542.93,761.074 1563.68,764.5 1609.02,764.5C1669.62,764.5 1681.94,763.611 1694.84,757.632C1716.01,747.806 1727.2,728.41 1727.98,708.225C1728.77,687.996 1719.11,667.03 1698.75,654.124L1698.75,654.123C1694.32,651.308 1689.24,649.739 1677.32,648.757C1664.94,647.737 1645.44,647.403 1612.35,647.21L1537.76,646.789ZM231.114,752.774L300.554,542.215C300.838,541.353 301.602,540.776 302.459,540.776L448.754,540.784C449.619,540.784 450.387,541.371 450.666,542.244L485.179,650.387C500.086,697.076 513.71,736.279 519.675,750.092C519.946,750.718 520.225,751.321 520.491,751.871C520.809,751.033 521.166,750.073 521.532,749.044C534.213,713.505 588.913,544.009 588.913,544.009C589.193,543.139 589.96,542.555 590.822,542.555L721.748,542.555C722.4,542.555 723.012,542.892 723.391,543.458C723.771,544.024 723.87,544.751 723.658,545.409L565.703,1036.49C565.423,1037.36 564.656,1037.95 563.793,1037.95L472.794,1037.95C471.933,1037.95 471.167,1037.36 470.886,1036.5C470.886,1036.5 392.205,794.026 376.759,744.705C376.456,743.739 376.178,742.846 375.924,742.028L276.57,1032.76C276.28,1033.61 275.522,1034.18 274.673,1034.18L184.59,1034.18C183.725,1034.18 182.956,1033.59 182.678,1032.72L26.713,543.633C26.503,542.975 26.604,542.249 26.983,541.684C27.363,541.119 27.975,540.784 28.626,540.784L158.915,540.873C159.771,540.874 160.533,541.45 160.818,542.311C160.818,542.311 218.618,717.121 230.871,752.083L231.114,752.774ZM1528.76,-45.394L1688.71,448.24C1688.92,448.9 1688.82,449.63 1688.44,450.199C1688.06,450.767 1687.44,451.102 1686.79,451.098L1556.34,450.334C1555.45,450.329 1554.68,449.711 1554.42,448.809L1533.68,376.379L1304.03,375.289L1283.69,445.001C1283.42,445.902 1282.64,446.515 1281.76,446.515L1148.93,446.515C1148.27,446.515 1147.66,446.179 1147.28,445.611C1146.9,445.044 1146.81,444.316 1147.02,443.658L1305.21,-45.393C1305.49,-46.262 1306.26,-46.845 1307.12,-46.845L1526.85,-46.845C1527.71,-46.845 1528.48,-46.263 1528.76,-45.394ZM1497.11,267.798L1498.95,267.796L1498.95,267.764C1498.93,267.604 1498.73,266.909 1498.38,265.73C1498.11,265.813 1497.87,265.952 1497.67,266.133C1497.58,266.211 1497.5,266.3 1497.42,266.398C1497.36,266.474 1497.18,267.262 1497.07,267.769C1497.08,267.777 1497.09,267.787 1497.11,267.798ZM1497.07,267.769C1496.98,267.715 1496.93,267.717 1496.93,267.797C1496.93,267.797 1496.93,267.798 1496.93,267.799L1497.06,267.798L1497.07,267.769ZM1496.22,265.645C1495.9,264.571 1495.49,263.212 1495.01,261.672C1484.06,226.254 1432.06,63.322 1421.43,30.979L1421.38,30.81L1421.32,30.98C1410.06,63.241 1355.06,226.393 1344.25,261.861C1343.79,263.355 1343.39,264.757 1343.09,265.85L1496.22,265.645ZM1104.26,538.324L1264.64,1030.68C1264.86,1031.34 1264.76,1032.07 1264.38,1032.64C1264.01,1033.2 1263.4,1033.54 1262.75,1033.55L1132.05,1034.18C1131.17,1034.18 1130.38,1033.57 1130.12,1032.67L1108.86,960.219L878.185,958.244L857.997,1030.73C857.74,1031.65 856.942,1032.28 856.04,1032.27L726.667,1030.82C726.018,1030.81 725.412,1030.47 725.038,1029.91C724.664,1029.34 724.567,1028.62 724.779,1027.96L883.132,538.536C883.413,537.668 884.179,537.086 885.039,537.085L1102.35,536.877C1103.21,536.876 1103.97,537.457 1104.26,538.324ZM918.353,847.758C932.384,847.61 993.724,847.477 1034.74,847.477C1050.98,847.477 1064.07,847.532 1069.92,847.592C1062.1,823.299 1008.89,656.419 997.484,619.203L997.13,618.043C991.44,634.948 974.976,683.142 958.459,731.325C940.813,782.809 923.08,834.278 918.353,847.758ZM1976.07,-46.845C2079.45,-46.845 2151.18,-45.246 2164.99,-42.693C2197.3,-36.694 2226.5,-18.311 2248.39,9.969C2271.29,39.521 2276.55,53.66 2279.54,94.162C2283.83,151.35 2258.39,200.721 2208.1,232.731C2193.57,242.004 2178.63,251.014 2174.91,252.806C2173.77,253.357 2172.92,253.749 2172.61,254.469C2172.5,254.714 2172.54,254.995 2172.62,255.335C2172.73,255.794 2172.93,256.303 2173.22,256.881C2174.43,259.315 2176.93,262.662 2180.86,267.587C2187.34,275.692 2198.6,287.237 2205.84,293.231L2218.68,303.874L2465.13,307.644C2466.22,307.661 2467.1,308.595 2467.12,309.757L2469.54,444.319C2469.55,444.898 2469.34,445.457 2468.96,445.87C2468.58,446.283 2468.06,446.515 2467.52,446.515L2316.01,446.515C2198.37,446.515 2160.73,445.268 2149.68,441.311L2149.68,441.309C2142.98,438.887 2132.49,431.657 2117.1,418.473C2094.41,399.028 2060.83,366.524 2012.51,317.484L1958.54,262.686L1959.13,444.353C1959.13,444.926 1958.92,445.476 1958.54,445.882C1958.16,446.287 1957.65,446.515 1957.11,446.515L1809.64,446.515C1808.53,446.515 1807.62,445.551 1807.62,444.361L1807.62,-44.69C1807.62,-45.88 1808.53,-46.845 1809.64,-46.845L1976.07,-46.845ZM1956.37,173.043L2032.65,173.043C2070.64,173.043 2090.23,172.985 2101.68,171.836C2112.57,170.743 2115.73,168.644 2120.89,164.516C2139.66,149.498 2146.32,134.036 2144.33,110.278L2144.33,110.275C2143.32,98.062 2140.65,88.761 2135.43,81.251C2130.19,73.718 2122.4,68.01 2111.3,62.882L2111.3,62.879C2098.48,56.9 2086.13,56.051 2025.64,56.051L1956.37,56.051L1956.37,173.043ZM1158.43,-48.636L1158.43,72.84C1158.43,74.03 1157.52,74.994 1156.41,74.994L930.411,74.994L930.411,444.365C930.411,445.555 929.507,446.52 928.391,446.52L792.45,446.52C791.334,446.52 790.43,445.555 790.43,444.365L790.43,74.707L526.304,75.504L526.299,75.504C514.17,75.504 506.217,79.548 501.07,85.128C493.356,93.492 491.934,105.146 491.934,111.066C491.934,115.906 493.17,120.727 497.189,128.303C503.557,140.305 516.675,158.803 542.413,193.575C570.505,231.572 596.28,269.521 599.682,277.805L599.684,277.811C609.106,300.952 607.797,330.549 598.513,358.021C589.257,385.407 572.095,410.654 549.971,425.254C534.203,435.648 527.669,440.982 495.801,443.709C464.439,446.393 408.149,446.524 292.917,446.524L7.65,446.524C6.535,446.524 5.631,445.559 5.631,444.369L5.631,307.896C5.631,306.706 6.535,305.741 7.65,305.741L396.73,305.741L407.713,297.59C415.024,292.154 419.235,284.657 420.848,274.413C421.957,267.149 422.216,263.043 416.614,254.03C410.614,244.378 398.317,229.48 374.357,200.681C316.8,131.485 310.923,118.742 313.903,74.567C317.303,23.911 359.681,-49.636 433.664,-49.636L1156.4,-50.791C1156.94,-50.792 1157.45,-50.565 1157.83,-50.161C1158.21,-49.757 1158.43,-49.208 1158.43,-48.636Z"/>
        </g>
        <g transform="matrix(3.94256,0,0,3.94256,2.24109e-13,0.0629628)">
            <path d="M118.81,147.291L127.48,172.752C132.171,186.521 136.359,197.53 136.905,197.53C136.914,197.53 136.922,197.526 136.929,197.52C137.529,196.99 154.499,147.708 154.499,147.708L187.389,147.708L147.709,263.327L124.849,263.327C124.849,263.327 100.449,192.855 100.549,192.588L75.079,262.44L52.449,262.44L13.269,147.291L45.999,147.312C45.999,147.312 63.928,198.132 64.167,198.132L64.169,198.13L82.059,147.289L118.81,147.291M2.095,139.283L5.696,149.867L44.876,265.016L46.721,270.44L80.678,270.44L82.596,265.18L100.281,216.68C101.805,221.114 103.452,225.893 105.099,230.667C109.156,242.428 113.22,254.186 117.29,265.943L119.154,271.327L153.422,271.327L155.276,265.925L194.956,150.307L198.593,139.708L148.793,139.708L146.935,145.104C143.526,155.004 140.094,164.896 136.639,174.78C136.105,173.245 135.576,171.708 135.052,170.17L126.383,144.71L124.537,139.289L76.394,139.289L74.513,144.635L64.06,174.341C60.543,164.448 57.037,154.551 53.544,144.65L51.662,139.316L46.005,139.312L13.275,139.291L2.095,139.283ZM625.349,146.843L625.275,177.148C625.275,177.148 592.632,177.04 576.037,177.04C570.516,177.04 566.769,177.054 566.592,177.085C563.735,177.606 561.912,183.688 562.723,186.356C563.121,187.707 566.116,192.116 569.354,196.167C572.583,200.219 577.895,206.849 581.133,210.896C589.451,221.277 590.592,223.326 591.363,229.287C592.613,238.97 588.035,249.447 579.535,256.357C571.014,263.287 571.389,263.336 508.152,263.336L505.375,263.336C466.914,263.325 446.574,263.007 443.613,262.348C438.353,261.158 429.97,254.318 407.822,233.068C399.855,225.432 392.511,218.746 392.134,218.744C392.124,218.744 392.12,218.751 392.12,218.762L391.858,263.34L355.96,263.182L355.738,148.202L435.8,148.202C459.929,149.073 476.259,173.112 473.009,188.442C472.273,191.921 470.392,196.963 468.829,199.642C465.618,205.142 457.448,212.202 450.817,215.233C448.368,216.34 446.368,217.63 446.368,218.09C446.368,219.8 454.429,227.738 457.448,228.999C460.028,230.078 467.538,230.318 500.659,230.318L511.266,230.32C544.559,230.32 542.883,230.08 545.455,224.579C547.256,220.75 545.887,218.46 533.217,204.189C517.166,188.218 518.846,180.568 518.737,174.918C518.508,168.147 523.839,146.85 551.549,146.85L625.349,146.843M410.28,199.962C425.65,199.962 428.771,199.724 432.041,198.303C443.082,193.502 443.672,179.324 433.082,173.032C430.762,171.651 427.781,171.424 411.121,171.333L391.842,171.231C392.002,171.38 391.781,198.801 391.781,198.801C391.781,198.801 396.61,199.962 410.28,199.962M633.369,138.843L551.549,138.843C535.516,138.843 526.033,145.17 520.904,150.48C512.554,159.113 510.592,169.984 510.742,175.109C510.75,175.536 510.746,175.974 510.74,176.431C510.668,184.76 511.892,194.189 527.4,209.677C530.462,213.128 535.589,218.915 537.531,221.791C533.293,222.312 522.551,222.312 511.265,222.312L506.474,222.312L500.66,222.31C480.756,222.31 463.971,222.252 460.533,221.574C460.051,221.262 459.377,220.72 458.635,220.076C465.512,215.843 472.465,209.277 475.739,203.665C477.725,200.252 479.917,194.422 480.837,190.098C482.878,180.473 479.513,168.862 471.837,159.03C462.88,147.559 449.851,140.696 436.091,140.2L435.946,140.194L347.723,140.194L347.74,148.212L347.962,263.191L347.978,271.14L355.927,271.175L391.825,271.333L399.811,271.367L399.86,263.38L400.014,236.675C400.746,237.37 401.504,238.094 402.284,238.839C426.513,262.079 434.641,268.519 441.846,270.148C443.826,270.588 447.1,271.32 505.369,271.336L508.146,271.336C539.695,271.336 555.529,271.336 564.947,270.427C575.736,269.384 579.207,266.937 584.408,262.7L584.582,262.559C595.266,253.871 600.904,240.729 599.297,228.259C598.248,220.149 596.102,216.78 587.375,205.891L584.781,202.651C581.719,198.828 578.66,195.003 575.603,191.176C573.619,188.692 572.056,186.487 571.119,185.042C572.353,185.039 573.959,185.037 576.037,185.037C592.432,185.037 624.924,185.144 625.25,185.146L633.258,185.171L633.278,177.163L633.354,146.856L633.369,138.843ZM399.832,191.67L399.869,185.112C399.879,183.112 399.889,181.108 399.89,179.272L411.078,179.331C417.508,179.365 427.182,179.419 429.068,179.954C431.474,181.415 432.818,183.675 432.672,186.015C432.592,187.279 431.99,189.603 428.85,190.965C427.1,191.726 424.311,191.962 410.282,191.962C405.83,191.962 402.397,191.833 399.832,191.67ZM283,146.371L323.291,262.291L290.46,262.44L285.01,245.03L226.31,244.559L221.13,261.99L188.63,261.649L228.41,146.42L283,146.371M256.599,163.366C256.516,163.699 251.455,177.586 246.377,191.47C241.257,205.47 236.12,219.47 236.049,219.578C236.185,219.538 254.365,219.498 266.017,219.498C271.47,219.498 275.492,219.508 275.567,219.526L275.568,219.531L275.568,219.528L275.567,219.526C275.363,219 256.658,164.043 256.599,163.366L256.6,163.36L256.599,163.366M288.687,138.365L282.994,138.371L228.404,138.422L222.708,138.428L220.849,143.814L181.069,259.043L177.446,269.536L188.548,269.651L221.048,269.992L227.081,270.055L228.8,264.273L232.266,252.611L279.12,252.986L282.828,264.835L284.593,270.474L290.5,270.448L323.33,270.299L334.524,270.246L330.847,259.673L290.556,143.753L288.687,138.365ZM247.564,211.509C249.079,207.379 251.12,201.799 253.891,194.22L256.284,187.675L258.453,194.071C259.099,195.977 261.938,204.342 264.373,211.5C257.133,211.5 251.683,211.501 247.564,211.509ZM296.58,8.012L296.58,36.612L239.3,36.612L239.3,124.083L205.15,124.083L205.15,36.543L138.29,36.732C130.23,36.732 129.15,43.152 129.15,45.612C129.15,48.633 131.12,51.652 141.94,65.352C148.96,74.251 155.41,83.132 156.26,85.072C160.9,95.753 154.9,112.392 143.97,119.152C136.18,123.965 137.511,124.084 79.662,124.084L8,124.084L8,91.953L105.9,91.953L108.79,89.943C110.74,88.584 111.87,86.714 112.3,84.153C112.9,80.473 112.59,79.993 100.5,66.374C86.21,50.273 84.7,47.334 85.44,37.055C86.28,25.325 96.74,8.284 115.02,8.284L296.58,8.012M304.58,-0L296.567,0.013L115.007,0.283C104.549,0.283 94.836,4.803 87.665,13.006C81.851,19.657 78.035,28.436 77.459,36.484C76.486,49.995 79.596,54.878 94.515,71.686C98.845,76.563 102.962,81.202 104.336,83.171C104.321,83.225 104.303,83.278 104.282,83.33C104.267,83.343 104.244,83.359 104.212,83.382L103.39,83.953L0,83.953L0,132.084L79.662,132.084C108.184,132.084 122.262,132.058 130.556,131.448C140.046,130.754 143.074,129.126 147.61,126.308L148.176,125.956C162.438,117.136 169.788,96.129 163.598,81.883C161.688,77.525 149.595,62.137 148.222,60.397C144.426,55.589 138.16,47.657 137.168,45.361C137.192,45.169 137.239,44.968 137.289,44.83C137.454,44.788 137.77,44.731 138.29,44.731L197.15,44.564L197.15,132.082L247.3,132.082L247.3,44.611L304.58,44.611L304.58,0ZM389.64,8.941L429.82,125.161L397.05,124.981L391.73,107.571L333.291,107.311L328.07,124.082L294.701,124.082L334.44,8.941L389.64,8.941M342.829,82.562L382.631,82.512L382.631,82.513C382.768,82.513 363.289,25.312 363.159,25.272C363.017,25.267 342.381,82.562 342.829,82.562M395.34,0.941L328.741,0.941L326.882,6.332L287.141,121.474L283.479,132.083L333.964,132.083L335.714,126.46L339.175,115.339L385.808,115.546L389.407,127.319L391.129,132.948L397.016,132.981L429.787,133.162L441.084,133.224L437.393,122.548L397.213,6.326L395.34,0.941ZM353.943,74.549C356.92,66.102 359.925,57.664 362.957,49.237C365.831,57.663 368.694,66.093 371.545,74.527L353.943,74.549ZM502.488,8.941C528.41,8.941 546.398,9.311 549.859,9.911C557.859,11.303 565.088,15.571 570.507,22.133C576.177,28.991 577.478,32.273 578.218,41.672C579.279,54.943 572.968,66.393 560.517,73.821C556.888,75.991 553.16,78.101 552.228,78.521C550.798,79.17 550.99,79.792 553.548,82.792C555.196,84.723 558.058,87.473 559.898,88.901L563.257,91.511L625.337,92.401L625.946,124.082L587.884,124.082C558.446,124.082 549.027,123.811 546.263,122.883C542.134,121.483 532.197,113.063 511.993,93.843L497.573,80.122L497.725,124.082L460.68,124.082L460.68,8.941L502.488,8.941M497.031,60.711L516.701,60.711C535.842,60.711 536.441,60.65 539.172,58.602C544.053,54.942 545.781,51.171 545.262,45.381C544.735,39.41 542.432,36.302 536.662,33.802C533.412,32.381 530.281,32.152 514.941,32.152L497.031,32.152L497.031,60.711M502.488,0.941L452.689,0.941L452.689,132.082L505.759,132.082L505.732,124.055L505.642,98.838L506.484,99.638C531.468,123.409 538.839,128.811 543.701,130.458C547.433,131.718 553.683,132.082 587.889,132.082L634.105,132.082L633.949,123.929L633.34,92.248L633.194,84.515L625.46,84.404L566.058,83.553L564.814,82.585C564.418,82.275 563.937,81.867 563.425,81.405L564.632,80.688C579.634,71.735 587.497,57.281 586.2,41.035C585.337,30.076 583.38,25.139 576.679,17.035C570.095,9.066 561.058,3.737 551.232,2.03C545.769,1.083 518.349,0.941 502.488,0.941ZM505.031,40.151L514.941,40.151C528.966,40.151 531.746,40.384 533.459,41.132C536.709,42.539 537.039,43.223 537.293,46.088C537.549,48.937 537.197,50.082 534.371,52.199L534.148,52.365C532.283,52.711 525.363,52.711 516.701,52.711L505.031,52.711L505.031,40.151Z" style="fill:rgb(255,197,0);fill-rule:nonzero;"/>
        </g>
    </g>
</svg>
